# xmcd
#
# Track frame offsets: 
#        150
#        17042
#        28214
#        41188
#        64389
#        83420
#        101112
#        116506
#        129485
#        145368
#        164330
#        182531
#        201842
#        216176
#        237372
#        253384
#        272111
#        292741
#        303040
#        318810
#        339613
#
# Disc length: 4795 seconds
#
# Revision: 2
# Processed by: cddbd v1.5.2PL0 Copyright (c) Steve Scherf et al.
# Submitted via: ExactAudioCopy v0.99pb5
#
DISCID=3712b915
DTITLE=Various Artist - Kontor - Top Of The Clubs Volume 15 [CD2)
DYEAR=2002
DGENRE=Trance
TTITLE0=DB Boulevard - Point Of View (Original Club Mix)
TTITLE1=Moby - We Are All Made Of Stars (Bob Sinclair Main Vocal Mix)
TTITLE2=Chicco Secci and Robbie Rivera - Let's Get Together (Terry Lee B
TTITLE2=rown Jr. Remix)
TTITLE3=Golden Boy with Miss Kittin - Rippin Kittin (Glove Tension Dub
TTITLE3=)
TTITLE4=Sono - Blame (Extended)
TTITLE5=Mad'House - Holiday (Extended Mix)
TTITLE6=Kosheen - Catch (Gordon Kaye Vocal Remix)
TTITLE7=Ferry Corsten - Punk (Vocal Extended)
TTITLE8=Tillmann Uhrmacher - On The Run' (Minimalistix Remix)
TTITLE9=DJ Isaac - On The Edge (DJ Errik Mix)
TTITLE10=DJ S.P.U.D. - Set It Off
TTITLE11=X-Zen-Tric - Definition Of Existence (Van Bellen Mix)
TTITLE12=Little Green Men - Need (Satoshi Tomie Remix)
TTITLE13=Private Taste - First
TTITLE14=Minimalistix - Close Cover ("Close But Undercover" Filterhead
TTITLE14=z Remix 1)
TTITLE15=Par-T-One vs. INXS - I'm So Crazy (Medicine Mix)
TTITLE16=Marc Dawn - Expander (Motorcraft Remix)
TTITLE17=Richard F. - Cookie Dough Dynamo (Short Dynamo Mix)
TTITLE18=Marco V. - Good (DJ Errik Mix)
TTITLE19=Hooligan featuring Da Experience - Are You Mature?
TTITLE20=CD-Extra
EXTD=
EXTT0=
EXTT1=
EXTT2=
EXTT3=
EXTT4=
EXTT5=
EXTT6=
EXTT7=
EXTT8=
EXTT9=
EXTT10=
EXTT11=
EXTT12=
EXTT13=
EXTT14=
EXTT15=
EXTT16=
EXTT17=
EXTT18=
EXTT19=
EXTT20=
PLAYORDER=
